<svg xmlns="http://www.w3.org/2000/svg" viewBox="0 0 31 21"><defs><style>.cls-1{fill:#fff;}.cls-2{fill:#007900;}.cls-3{fill:#f00000;}.cls-4{fill:none;stroke:#d3d3d3;stroke-miterlimit:10;}</style></defs><g id="Layer_2" data-name="Layer 2"><g id="Design"><rect class="cls-1" x="0.5" y="0.5" width="30" height="10"/><rect class="cls-2" x="0.5" y="10.5" width="30" height="10"/><path class="cls-3" d="M27.82,7.1a8,8,0,0,1-.16-1.46,10.43,10.43,0,0,1,.05-1.58l0-.09-.26.31a30.7,30.7,0,0,1-2.16,2.26c-.14.14-.3.28-.44.43L25,7a3.76,3.76,0,0,0,1.11,0l.11,0V7l-.1.16-.27.56A2.43,2.43,0,0,0,24,7.47a1.51,1.51,0,0,0-.85.58,1,1,0,0,0-.16.73,1.12,1.12,0,0,0,.41.78,1.6,1.6,0,0,0,1,.25,4.93,4.93,0,0,0,.94-.11.66.66,0,0,1-.35.42,2,2,0,0,1-.87.19,6.41,6.41,0,0,1-1.24-.07c-.16,0-.32-.1-.49-.14A9.07,9.07,0,0,0,20.1,10a1.48,1.48,0,0,1,.76-.68,1.92,1.92,0,0,1,1.22-.16l.1,0L22,8.89a1.51,1.51,0,0,1-.28-.84,1.88,1.88,0,0,1,.46-1.17,3.52,3.52,0,0,1,1.47-1l.25-.09v0a1.42,1.42,0,0,1-.69-.43.6.6,0,0,1-.05-.54,2.08,2.08,0,0,1,.48-.7,8.88,8.88,0,0,1,1.28-1.09l0-.08-.16.06L23,3.65c-.6.24-1.21.48-1.82.69l-.39.07a.72.72,0,0,1-.47-.26,1,1,0,0,1-.13-.65,2.74,2.74,0,0,1,.33-1l0-.09h0a35.76,35.76,0,0,0-5.09,3.35,4.67,4.67,0,0,0-.76.71,1.37,1.37,0,0,0-.31.72c0,.31,0,.63,0,.94a1.29,1.29,0,0,1-.35,1c-.24.07-.5.11-.74.16l-1.08.22A4.5,4.5,0,0,1,12,9.08l.25-.25a1.27,1.27,0,0,1,.47.06l-.08-.36a.87.87,0,0,0-.41-.27A.4.4,0,0,1,12,7.93l0-.27.21-.09a2.22,2.22,0,0,1,.74.32L13,7.81a1,1,0,0,0-.36-.7L12.29,7a.39.39,0,0,1-.14-.43l.23-.19c.25,0,.45.24.71.23a1,1,0,0,0-.26-.69c-.13-.15-.35-.15-.49-.27V5.48l.21-.1a1.77,1.77,0,0,1,.46,0l-.07-.21a1.45,1.45,0,0,0-.68-.39l-.15-.26L12,4.21l.18-.35.6-.41.15-.11v0l-.23,0c0-.25.06-.5.09-.75l0-.08-.19.19a1.4,1.4,0,0,1-.46.16l-.24.08a3.32,3.32,0,0,0-.69.24l-.27.21c-.65,0-1.29-.07-1.94-.09a1.28,1.28,0,0,0-.62.21.59.59,0,0,0-.24.37c-.41,0-.82,0-1.22.11a2.41,2.41,0,0,0-.93.36,2.22,2.22,0,0,0-.46.41l0,.09h.21a5.47,5.47,0,0,1,1.28,0A.58.58,0,0,1,7.36,5l.09.24.17,0,.2.11.07-.14.17.08,0-.18.16.07,0-.2.21.1V4.78A1.32,1.32,0,0,1,9.24,5l.17.19c-.51.09-1,.15-1.54.19H7.79a16.55,16.55,0,0,1-2.44,0l.48-.24,0-.06-.31-.07a4.63,4.63,0,0,1-1.65-.61l-.21-.15,0,.06a2.17,2.17,0,0,0,.24.54,5.17,5.17,0,0,0,.72.9,4.18,4.18,0,0,0,.65.53l.29.1v0c-.08-.14-.16-.27-.23-.41l2.18.1a1.79,1.79,0,0,0,.23.72.83.83,0,0,0,0,.44l.16.17L8,7.34c.1-.24.18-.48.28-.72l.16.31.07,0a1,1,0,0,1,.36-.58,1.32,1.32,0,0,1,.54-.24l.13.33a.76.76,0,0,0-.36.39.61.61,0,0,0,0,.44.81.81,0,0,0-.33.46l0,.33a1.1,1.1,0,0,0-.35.42A1,1,0,0,0,8.35,9a.53.53,0,0,0-.29.33,1.63,1.63,0,0,0-.06.79,1,1,0,0,0,0,1.45.62.62,0,0,0-.23.37L7.47,12a.74.74,0,0,0-.38-.22l-.23,0a.74.74,0,0,0-.65-.43A.63.63,0,0,0,6,10.89l-.24-.14a4.46,4.46,0,0,0-.19-1l-.18-.38,0-.33c.12-.18.38-.21.49-.41A1,1,0,0,0,6,8.12a1.19,1.19,0,0,0,.08-.41.41.41,0,0,0-.27-.39h0a.8.8,0,0,1-.2.63L5.4,8l-.16.19.09-.35V7.41l-.14-.24a1,1,0,0,0-.45-.46l-.36-.07,0,.09a.73.73,0,0,1,.32.62,2.45,2.45,0,0,0-.18.8l0,.39c-.09-.22-.17-.44-.27-.66l-.18-.23-.22-.19a.84.84,0,0,0-.72-.12v0l.22.11.22.33L3.54,8a.72.72,0,0,0,.13.37l.08.35a.87.87,0,0,0,.47.39c0,.5-.11,1-.16,1.5-.2.12-.25.36-.39.52s-.24.16-.26.3l.11.14-.18.33L3,12v.05a.64.64,0,0,0,.6,0l.27-.2.22-.1c.15-.17.1-.44.25-.62a1.16,1.16,0,0,0,.22-.39,5,5,0,0,0,.34.86,3.05,3.05,0,0,0,.94,1.11l.26.27a5.7,5.7,0,0,1,.8,1.08,2.71,2.71,0,0,1,.32,1.07l0,.25.1,0a2.89,2.89,0,0,0,.56-1.07,4.32,4.32,0,0,1,1.43-.17.53.53,0,0,0-.07.44l-.31.28,0,.38a.86.86,0,0,0-.34.39,1.48,1.48,0,0,0-.06.47l-.32.36a1.24,1.24,0,0,1-.71.4,1.84,1.84,0,0,1-.77-.13,1.65,1.65,0,0,0-.63-.26H5.92a.68.68,0,0,0-.54-.08.43.43,0,0,0-.26.35l0,.07.26-.13.24.12,0,.15.07.1-.13.15a1,1,0,0,0-.61.06.58.58,0,0,0-.29.39l0,0a.72.72,0,0,1,.51-.11,1.45,1.45,0,0,1,.45.13v.16a.54.54,0,0,0-.39.23,1.09,1.09,0,0,0-.16.49h.05a1,1,0,0,1,.52-.33l.18,0,.37.12a1.21,1.21,0,0,0,.68-.23l.2-.14A.68.68,0,0,1,7.56,18,1.59,1.59,0,0,0,8,18l.26-.11a.49.49,0,0,1,.38-.11.88.88,0,0,1,.46.23l.12.1a2,2,0,0,0,.41.1.57.57,0,0,0,.42-.1l.35-.06.26.17,0,0a.62.62,0,0,0-.12-.39.63.63,0,0,0-.45-.2l-.13-.1a4.14,4.14,0,0,1-.93-.18,3.06,3.06,0,0,1,.55-1.15c.23-.26.48-.5.73-.74a7.66,7.66,0,0,0,.72-.79,3.3,3.3,0,0,0,.41,1.08l.1.19a3.14,3.14,0,0,0,.25-.44A2.79,2.79,0,0,0,12,14.9a2.81,2.81,0,0,0,.58-.39.7.7,0,0,0,.53,0A2.81,2.81,0,0,0,14,14L14,14a.94.94,0,0,0,.62,0,.67.67,0,0,0,0,.57,1.23,1.23,0,0,0,.69.49.52.52,0,0,0,.28.38,2,2,0,0,0,.83.14.43.43,0,0,0,.33.25.49.49,0,0,0-.28.43l-.28.06-.21.29a1.86,1.86,0,0,0-.9.17H15a1.5,1.5,0,0,1-.84-.47l-.25-.22-.25-.13-.21.1a.63.63,0,0,0-.52,0,.47.47,0,0,0-.26.4h.08l.33-.14.21.1.06.18a1.85,1.85,0,0,0,.56.19.75.75,0,0,1,.45.37,1,1,0,0,1-.64-.06L13.45,17a.58.58,0,0,0-.53,0,.6.6,0,0,0-.56.14.61.61,0,0,0-.22.46l0,0c.14-.11.3-.27.5-.21l0,.12.43.25-.26.17a.53.53,0,0,0,0,.44l.06,0,.18-.2.4-.05.15.09.23-.15a2.15,2.15,0,0,1,.93-.25,1.67,1.67,0,0,1,.63,0l.2.08a1,1,0,0,1,.5-.12l.36.14c.16.08.29.2.45.27l.36,0,.3-.12a.52.52,0,0,1,.44.18l.09,0a.49.49,0,0,0-.16-.44,1.22,1.22,0,0,0-.49-.19l-.3-.16a4.67,4.67,0,0,1-.63-.07,4.57,4.57,0,0,0,2.75-2.06,5.73,5.73,0,0,0,.7.23,1.38,1.38,0,0,0,.39.13.9.9,0,0,0-.28-.76,1.17,1.17,0,0,0-.72-.25l-.94-.36-.12-.07a.82.82,0,0,1-.11-.77,1,1,0,0,1,.34-.35l.27-.32c.22,0,.38.19.59.22l.3.3a1.15,1.15,0,0,0,.72.16,1.27,1.27,0,0,0,1.12.15.94.94,0,0,0,.91.18h.12a.77.77,0,0,0,.57.11.94.94,0,0,0,.37.37l0,.27a1.24,1.24,0,0,0,.14.54.86.86,0,0,0,0,.61l-.27.3,0,.32,0,.08a1.18,1.18,0,0,1-.5.44.77.77,0,0,1-.54,0l-.35-.19-.27-.19-.43-.42L21,16.08l-.11.11a.78.78,0,0,0-.43,0,.4.4,0,0,0-.24.37l0,.05.16-.1.41,0v.19l.25.12-.39,0-.18.12a1,1,0,0,0-.43.26.53.53,0,0,0-.11.39l0,0,.19-.19.4-.05.05.07.86,0-.23.11-.15.2-.24.09a.78.78,0,0,0-.29.48l0,.09.36-.19a.93.93,0,0,1,.57-.06l.38-.25.24-.13a.89.89,0,0,1,.51-.05l.18.11a.64.64,0,0,0,.57,0,1.46,1.46,0,0,1,.53-.15,1,1,0,0,1,.59.12c.16.09.3.19.46.27l.2-.1a.61.61,0,0,1,.57.19l.1,0a.74.74,0,0,0-.51-.65l-.2-.12-.56-.21a1.35,1.35,0,0,1-.18-.41l.09-.22.07-.3a7.63,7.63,0,0,0,.23-1.65,3.32,3.32,0,0,0-.2-1.13,6.28,6.28,0,0,1,.52.38.71.71,0,0,0,.66.12l0-.09a1,1,0,0,0-.26-.37,4.28,4.28,0,0,0-.61-.44c-.65-.42-1.35-.78-2-1.16a5.47,5.47,0,0,0,1.54-.35,4.44,4.44,0,0,0,1.66-1,2.23,2.23,0,0,0,.59-1,1.86,1.86,0,0,0-.17-1.29c.15-.45.29-.91.44-1.36a2,2,0,0,0,.72.71l.36.16V7.85A3.1,3.1,0,0,1,27.82,7.1ZM25,9a1.27,1.27,0,0,1-.72.06.42.42,0,0,1-.34-.23L24,8.6a.79.79,0,0,1,.61-.16,1.25,1.25,0,0,1,.6.29Z"/><path class="cls-1" d="M8.43,4a1.84,1.84,0,0,1,.47-.07L9.11,4,9.53,4l.29,0a1.63,1.63,0,0,0,.49-.14l0,.05a1.74,1.74,0,0,1-.55.16l-.26,0a.58.58,0,0,1-.41.29A.46.46,0,0,1,8.67,4L8.45,4Z"/><rect class="cls-4" x="0.5" y="0.5" width="30" height="20"/></g></g></svg>